<?xml version="1.0" encoding="UTF-8"?>
<svg width="512" height="512" viewBox="0 0 512 512" fill="none" xmlns="http://www.w3.org/2000/svg">
  <circle cx="256" cy="256" r="256" fill="#1E88E5"/>
  <path d="M352 152c-8 0-16 4-20 12l-76 180-76-180c-4-8-12-12-20-12-12 0-24 8-24 24 0 4 0 8 2 12l90 212c4 8 12 16 24 16s20-8 24-16l90-212c2-4 2-8 2-12 0-16-12-24-24-24z" fill="white"/>
  <path d="M352 152c-4 0-8 2-10 6 0 0-86 204-86 204s-86-204-86-204c-2-4-6-6-10-6-6 0-12 4-12 12 0 2 0 4 1 6l90 212c2 4 6 8 12 8s10-4 12-8l90-212c1-2 1-4 1-6 0-8-6-12-12-12z" fill="white" opacity="0.6"/>
  <style>
    @import url('https://fonts.googleapis.com/css2?family=Pacifico&amp;display=swap');
  </style>
  <text x="50%" y="60%" text-anchor="middle" font-family="Pacifico" font-size="280" fill="white">V</text>
</svg> 